# xmcd
#
# Track frame offsets:
#	150
#	23571
#	47616
#	70408
#	98515
#	138039
#	156829
#	187982
# Disc length: 2829 seconds
# Revision: 1
# Processed by: cddbd v1.5.1PL2 Copyright (c) Steve Scherf et al.
#
# Submitted via: libkcddb 0.21
#
DISCID=590b0b08
DTITLE=Spiritan Voice - Unfailing Love
DYEAR=2004
DGENRE=Contemporary Christian
TTITLE0=Nzere Ndu
TTITLE1=Osanobua
TTITLE2=I lift up my eyes
TTITLE3=Shake it off
TTITLE4=Allah mu na gaisheka
TTITLE5=Unfailing Love
TTITLE6=Anyi n'edo gi nso
TTITLE7=Va nen ge nen
EXTD=
EXTT0=
EXTT1=
EXTT2=
EXTT3=
EXTT4=Hausa
EXTT5=
EXTT6=Igbo
EXTT7=Tiv
PLAYORDER=
